<svg xmlns="http://www.w3.org/2000/svg" xmlns:xlink="http://www.w3.org/1999/xlink" width="1587" zoomAndPan="magnify" viewBox="0 0 1190.25 842.249979" height="1123" preserveAspectRatio="xMidYMid meet" version="1.0"><defs><clipPath id="3797ddb4a7"><path d="M 0.15625 0 L 1189.347656 0 L 1189.347656 841.5 L 0.15625 841.5 Z M 0.15625 0 " clip-rule="nonzero"/></clipPath><clipPath id="df1b2bc0a1"><path d="M 0.15625 0 L 1189.042969 0 L 1189.042969 841.289062 L 0.15625 841.289062 Z M 0.15625 0 " clip-rule="nonzero"/></clipPath><clipPath id="d628b46356"><path d="M 572 125 L 734 125 L 734 184 L 572 184 Z M 572 125 " clip-rule="nonzero"/></clipPath><clipPath id="c818b5c472"><path d="M 546.804688 146.628906 L 599.6875 67.539062 L 757.246094 172.890625 L 704.363281 251.980469 Z M 546.804688 146.628906 " clip-rule="nonzero"/></clipPath><clipPath id="c3f1e65ee3"><path d="M 546.253906 146.980469 L 599.972656 66.644531 L 758.773438 172.828125 L 705.058594 253.164062 Z M 546.253906 146.980469 " clip-rule="nonzero"/></clipPath><clipPath id="4d2d3ef070"><path d="M 20.085938 526.949219 L 479.800781 -160.570312 L 1169.8125 300.808594 L 710.097656 988.328125 Z M 20.085938 526.949219 " clip-rule="nonzero"/></clipPath><clipPath id="5c06b05938"><path d="M 618 125 L 736 125 L 736 185 L 618 185 Z M 618 125 " clip-rule="nonzero"/></clipPath><clipPath id="80dd18a8cd"><path d="M 618.902344 196.894531 L 679.695312 105.972656 L 767.503906 164.6875 L 706.710938 255.609375 Z M 618.902344 196.894531 " clip-rule="nonzero"/></clipPath><clipPath id="dd951f6f48"><path d="M 618.527344 196.890625 L 679.738281 105.34375 L 768.167969 164.476562 L 706.957031 256.019531 Z M 618.527344 196.890625 " clip-rule="nonzero"/></clipPath><clipPath id="8cea7a1ac5"><path d="M 5.617188 536.519531 L 476.574219 -167.8125 L 1182.773438 304.390625 L 711.820312 1008.726562 Z M 5.617188 536.519531 " clip-rule="nonzero"/></clipPath></defs><path fill="#6dc2b4" d="M 311.046875 407.597656 C 311.46875 407.597656 312.035156 407.597656 312.457031 407.597656 C 319.214844 407.597656 324.847656 402.527344 325.691406 395.765625 L 326.539062 388.019531 C 342.027344 253.367188 456.089844 151.957031 591.839844 151.957031 C 727.589844 151.957031 671.964844 160.972656 708.4375 178.71875 C 715.054688 181.957031 722.941406 179.140625 726.179688 172.523438 C 729.417969 165.902344 726.601562 158.015625 719.984375 154.773438 C 679.851562 135.199219 636.761719 125.339844 591.699219 125.339844 C 442.429688 125.339844 317.101562 237.03125 300.0625 384.921875 C 300.0625 385.203125 299.640625 388.863281 299.359375 391.257812 L 299.359375 393.089844 C 298.375 400.414062 303.585938 406.890625 310.90625 407.738281 Z M 311.046875 407.597656 " fill-opacity="1" fill-rule="nonzero"/><path fill="#6dc2b4" d="M 326.679688 450.976562 L 326.257812 447.035156 C 325.410156 439.710938 318.792969 434.5 311.46875 435.484375 C 304.148438 436.328125 298.9375 442.949219 299.78125 450.132812 L 300.203125 454.078125 C 303.445312 481.542969 310.625 507.878906 321.046875 532.667969 C 328.789062 532.105469 338.367188 530.414062 347.238281 526.191406 C 336.957031 502.667969 329.777344 477.316406 326.679688 450.976562 Z M 326.679688 450.976562 " fill-opacity="1" fill-rule="nonzero"/><path fill="#4ea896" d="M 753.921875 631.542969 C 722.800781 655.207031 686.1875 672.390625 645.914062 680.699219 C 638.730469 682.25 634.085938 689.152344 635.632812 696.476562 C 636.902344 702.8125 642.535156 707.039062 648.589844 707.039062 C 654.644531 707.039062 650.417969 707.039062 651.265625 706.757812 C 713.367188 693.941406 767.582031 662.25 808.277344 617.882812 C 794.054688 616.191406 768.003906 625.769531 753.921875 631.542969 Z M 753.921875 631.542969 " fill-opacity="1" fill-rule="nonzero"/><path fill="#6dc2b4" d="M 871.785156 438.019531 C 864.464844 437.175781 857.84375 442.386719 857 449.710938 C 848.550781 523.65625 810.25 588.445312 753.78125 631.542969 C 767.863281 625.769531 793.914062 616.191406 808.136719 617.882812 C 848.972656 573.375 876.152344 516.050781 883.332031 452.808594 C 884.179688 445.484375 878.96875 438.863281 871.644531 438.019531 Z M 871.785156 438.019531 " fill-opacity="1" fill-rule="nonzero"/><path fill="#6dc2b4" d="M 856.578125 384.214844 C 856.578125 384.636719 856.578125 385.90625 856.859375 387.175781 C 856.859375 388.863281 857.140625 390.414062 857.140625 390.695312 C 857.984375 397.457031 863.617188 402.386719 870.378906 402.386719 C 877.136719 402.386719 871.363281 402.386719 871.785156 402.386719 C 878.96875 401.679688 884.320312 395.0625 883.613281 387.878906 L 883.613281 385.34375 C 883.332031 383.511719 883.191406 381.539062 883.050781 381.257812 C 876.996094 334.355469 859.394531 289.003906 832.074219 250.128906 C 827.851562 244.074219 819.542969 242.664062 813.488281 246.890625 C 807.433594 251.113281 806.023438 259.425781 810.25 265.480469 C 835.03125 300.695312 851.085938 341.960938 856.578125 384.355469 Z M 856.578125 384.214844 " fill-opacity="1" fill-rule="nonzero"/><path fill="#3a6c82" d="M 588.460938 646.613281 C 588.460938 653.09375 593.671875 658.304688 600.148438 658.304688 C 606.625 658.304688 611.835938 653.09375 611.835938 646.613281 L 611.835938 598.867188 C 604.933594 599.710938 593.671875 602.671875 588.601562 604.078125 L 588.601562 646.613281 Z M 588.460938 646.613281 " fill-opacity="1" fill-rule="nonzero"/><path fill="#6dc2b4" d="M 766.875 484.359375 C 758.710938 473.230469 743.78125 469.289062 732.515625 469.289062 L 729.417969 469.289062 C 716.746094 469.007812 697.453125 468.726562 648.167969 491.261719 C 635.632812 497.035156 625.777344 503.9375 617.890625 511.402344 C 625.636719 512.949219 635.914062 515.203125 646.898438 518.304688 C 650.277344 516.191406 653.800781 514.21875 657.742188 512.386719 C 697.875 494.078125 714.773438 492.386719 725.476562 492.386719 C 736.179688 492.386719 727.871094 492.386719 728.855469 492.386719 C 729.980469 492.386719 731.109375 492.386719 732.234375 492.386719 C 739.417969 492.386719 745.753906 495.203125 747.726562 498.019531 C 748.148438 498.585938 748.851562 499.570312 748.007812 502.105469 C 746.457031 506.753906 741.527344 513.9375 727.304688 523.089844 C 737.726562 526.613281 748.992188 529.710938 754.90625 531.261719 C 761.808594 524.921875 767.582031 517.457031 770.257812 509.148438 C 773.074219 500.273438 771.804688 491.402344 766.59375 484.21875 Z M 766.875 484.359375 " fill-opacity="1" fill-rule="nonzero"/><path fill="#4b8ea1" d="M 619.441406 588.445312 C 645.070312 581.121094 706.183594 561.121094 722.378906 552.8125 C 732.65625 547.457031 745.191406 540.417969 755.1875 531.261719 C 749.273438 529.710938 738.007812 526.472656 727.589844 523.09375 C 723.222656 525.910156 718.011719 529.007812 711.675781 532.246094 C 698.296875 539.148438 640.5625 558.304688 613.101562 566.191406 C 615.917969 552.8125 624.085938 532.808594 646.898438 518.304688 C 635.914062 515.203125 625.636719 512.949219 617.890625 511.402344 C 594.796875 533.515625 589.726562 560.417969 588.601562 573.65625 C 569.308594 580.558594 551.847656 589.429688 536.78125 605.207031 C 530.722656 611.542969 517.347656 628.445312 518.191406 650.699219 C 522.558594 650.558594 531.429688 649.855469 541.425781 647.320312 C 541.988281 635.066406 549.875 625.207031 553.675781 621.261719 C 563.675781 610.839844 575.222656 603.9375 588.320312 598.585938 L 588.320312 604.078125 C 593.386719 602.671875 604.652344 599.714844 611.554688 598.867188 L 611.554688 590.699219 C 614.089844 589.996094 616.625 589.289062 619.15625 588.445312 Z M 619.441406 588.445312 " fill-opacity="1" fill-rule="nonzero"/><path fill="#3a6c82" d="M 518.472656 653.515625 C 519.316406 661.96875 522.273438 670.277344 527.0625 678.164062 C 528.472656 678.445312 529.878906 678.871094 531.148438 679.152344 C 535.933594 680.136719 544.101562 681.828125 544.523438 681.828125 C 551.707031 683.234375 556.492188 690.277344 554.945312 697.460938 C 554.382812 699.996094 553.253906 702.25 551.566406 704.082031 C 552.410156 704.644531 553.113281 705.347656 553.960938 705.910156 C 556.070312 707.320312 558.324219 708.164062 560.71875 708.164062 C 564.378906 708.164062 567.898438 706.476562 570.152344 703.375 C 573.957031 698.164062 572.6875 690.839844 567.476562 687.179688 C 551.285156 675.628906 542.554688 663.515625 541.425781 651.402344 C 541.425781 649.996094 541.425781 648.726562 541.425781 647.320312 C 531.429688 649.996094 522.414062 650.558594 518.191406 650.699219 C 518.191406 651.6875 518.191406 652.53125 518.332031 653.515625 Z M 518.472656 653.515625 " fill-opacity="1" fill-rule="nonzero"/><path fill="#4ea896" d="M 544.523438 681.96875 C 544.101562 681.96875 535.933594 680.277344 531.148438 679.292969 C 529.738281 679.011719 528.332031 678.585938 527.0625 678.304688 C 445.8125 658.023438 379.90625 600.839844 347.238281 526.332031 C 338.367188 530.558594 328.789062 532.105469 321.046875 532.808594 C 356.953125 618.164062 432.292969 683.65625 525.515625 705.347656 C 530.722656 706.476562 539.171875 708.164062 539.453125 708.164062 C 540.300781 708.304688 541.144531 708.445312 541.988281 708.445312 C 545.652344 708.445312 549.171875 706.898438 551.566406 704.222656 C 553.253906 702.390625 554.523438 700.277344 554.945312 697.601562 C 556.351562 690.417969 551.707031 683.375 544.523438 681.96875 Z M 544.523438 681.96875 " fill-opacity="1" fill-rule="nonzero"/><path fill="#3a6c82" d="M 471.722656 503.089844 C 429.617188 474.359375 418.914062 424.214844 416.238281 405.34375 C 410.042969 402.527344 403.566406 399.710938 396.804688 396.609375 C 406.382812 462.246094 445.671875 549.148438 562.691406 545.203125 C 574.519531 544.640625 581.558594 539.289062 571.421875 527.316406 C 553.535156 530.273438 514.8125 531.261719 471.722656 502.949219 Z M 471.722656 503.089844 " fill-opacity="1" fill-rule="nonzero"/><path fill="#6dc2b4" d="M 540.019531 375.0625 C 540.019531 375.0625 489.746094 333.511719 400.890625 329.566406 C 399.339844 329.566406 397.933594 330.554688 397.511719 331.960938 C 395.960938 337.171875 394.835938 345.625 394.414062 356.046875 C 416.378906 363.371094 464.117188 375.484375 541.847656 376.609375 C 541.144531 376.046875 540.582031 375.625 540.019531 375.0625 Z M 540.019531 375.0625 " fill-opacity="1" fill-rule="nonzero"/><path fill="#4ea896" d="M 541.847656 376.609375 C 464.117188 375.484375 416.378906 363.371094 394.414062 356.046875 C 393.988281 367.597656 394.695312 381.539062 396.804688 396.75 C 403.566406 399.710938 410.183594 402.667969 416.238281 405.484375 C 445.246094 418.582031 465.242188 428.722656 465.242188 428.722656 C 465.242188 428.722656 465.667969 429.003906 466.230469 429.429688 C 466.511719 428.582031 466.933594 427.878906 467.496094 427.175781 C 471.582031 422.105469 479.183594 422.667969 484.394531 425.90625 C 487.070312 427.597656 542.554688 458.160156 584.515625 504.5 C 587.894531 508.160156 592.542969 506.753906 594.9375 496.894531 C 603.386719 463.9375 597.753906 420.554688 541.707031 376.609375 Z M 541.847656 376.609375 " fill-opacity="1" fill-rule="nonzero"/><path fill="#4b8ea1" d="M 416.378906 405.34375 C 418.914062 424.214844 429.617188 474.359375 471.863281 503.089844 C 514.953125 531.402344 553.675781 530.414062 571.5625 527.457031 C 571.421875 527.316406 571.28125 527.175781 571.140625 526.894531 C 531.007812 480.554688 471.863281 442.949219 471.15625 442.527344 C 466.652344 439.710938 464.539062 433.933594 466.371094 429.289062 C 465.808594 428.863281 465.382812 428.582031 465.382812 428.582031 C 465.382812 428.582031 445.386719 418.441406 416.378906 405.34375 Z M 416.378906 405.34375 " fill-opacity="1" fill-rule="nonzero"/><path fill="#4b8ea1" d="M 751.386719 298.15625 C 729.558594 312.242188 708.578125 321.398438 697.03125 326.046875 C 697.171875 331.820312 693.085938 337.3125 693.085938 337.3125 C 668.164062 374.636719 650.703125 432.808594 642.675781 463.511719 C 644.644531 464.640625 648.871094 464.5 658.445312 459.851562 C 677.457031 450.414062 755.046875 416.328125 751.527344 298.300781 Z M 751.386719 298.15625 " fill-opacity="1" fill-rule="nonzero"/><path fill="#3a6c82" d="M 767.722656 286.609375 C 762.371094 290.691406 756.878906 294.496094 751.386719 298.015625 C 754.90625 416.046875 677.316406 450.132812 658.304688 459.570312 C 648.871094 464.359375 644.503906 464.359375 642.535156 463.230469 C 641.828125 465.90625 641.125 468.441406 640.5625 470.695312 C 639.152344 476.613281 644.785156 481.824219 650.5625 479.710938 C 757.863281 442.246094 772.507812 351.398438 767.582031 286.46875 Z M 767.722656 286.609375 " fill-opacity="1" fill-rule="nonzero"/><path fill="#6dc2b4" d="M 754.765625 217.875 C 754.203125 215.902344 752.089844 214.917969 750.121094 215.621094 C 588.460938 270.550781 586.207031 365.765625 587.191406 382.246094 C 587.191406 383.792969 588.039062 385.203125 589.164062 386.328125 C 608.316406 405.34375 616.058594 430.695312 619.015625 444.78125 C 619.441406 446.894531 622.398438 446.753906 622.820312 444.78125 C 637.042969 378.722656 672.246094 326.1875 672.246094 326.1875 C 672.246094 326.1875 682.527344 310.128906 693.085938 318.582031 C 695.761719 320.695312 696.75 323.371094 696.890625 326.046875 C 708.578125 321.398438 729.558594 312.242188 751.246094 298.160156 C 756.738281 294.636719 762.230469 290.835938 767.582031 286.75 C 765.046875 253.648438 757.582031 227.171875 754.625 218.015625 Z M 754.765625 217.875 " fill-opacity="1" fill-rule="nonzero"/><g clip-path="url(#d628b46356)"><g clip-path="url(#c818b5c472)"><g clip-path="url(#c3f1e65ee3)"><g clip-path="url(#4d2d3ef070)"><path fill="#6dc2b4" d="M 708.550781 179.230469 C 708.894531 179.464844 709.9375 180.160156 711.128906 180.625 C 712.515625 181.550781 713.941406 182.167969 714.171875 182.324219 C 720.179688 185.339844 727.3125 183.421875 731.019531 177.878906 C 734.726562 172.335938 731.558594 177.070312 731.792969 176.722656 C 735.152344 170.449219 732.65625 162.429688 726.378906 159.066406 L 724.300781 157.675781 C 722.644531 156.902344 720.949219 155.9375 720.640625 155.898438 C 678.851562 135.140625 632.003906 124.707031 585.136719 125.792969 C 577.851562 125.933594 572.140625 131.976562 572.285156 139.261719 C 572.433594 146.542969 578.476562 152.257812 585.757812 152.113281 C 628.230469 151.097656 670.882812 160.5625 708.664062 179.308594 Z M 708.550781 179.230469 " fill-opacity="1" fill-rule="nonzero"/></g></g></g></g><g clip-path="url(#5c06b05938)"><g clip-path="url(#80dd18a8cd)"><g clip-path="url(#dd951f6f48)"><g clip-path="url(#8cea7a1ac5)"><path fill="#6dc2b4" d="M 710.605469 180.089844 C 710.957031 180.328125 712.023438 181.039062 713.246094 181.515625 C 714.664062 182.464844 716.121094 183.097656 716.359375 183.253906 C 722.507812 186.339844 729.8125 184.375 733.609375 178.695312 C 737.40625 173.015625 734.164062 177.867188 734.398438 177.511719 C 737.84375 171.082031 735.292969 162.871094 728.867188 159.429688 L 726.738281 158.007812 C 725.042969 157.214844 723.308594 156.226562 722.996094 156.1875 C 680.222656 134.949219 632.261719 124.28125 584.28125 125.417969 C 576.824219 125.566406 570.976562 131.757812 571.121094 139.214844 C 571.265625 146.675781 577.449219 152.523438 584.90625 152.371094 C 628.390625 151.3125 672.050781 160.988281 710.722656 180.167969 Z M 710.605469 180.089844 " fill-opacity="1" fill-rule="nonzero"/></g></g></g></g></svg>